# xmcd
#
# Track frame offsets:
#	150
#	17845
#	43063
#	68113
#	88945
#	120123
#	146195
#	173523
#	191990
#	239140
#	265710
#	290148
#	308623
#
# Disc length: 4373 seconds
#
# Revision: 0
# Processed by: cddbd v1.4PL0 Copyright (c) Steve Scherf et al.
# Submitted via: dBpowerAMP V4.0
#
DISCID=c011130d
DTITLE=Burning Red Ivanhoe - Best of 1969-74
DYEAR=1900
DGENRE=Jungle
TTITLE0=Ivanhoe i Broendbyerne
TTITLE1=I want The Rest Of My Life
TTITLE2=Canaltrip
TTITLE3=August Suicidal
TTITLE4=Wallifanten
TTITLE5=Purple Hearts
TTITLE6=Rotating Irons
TTITLE7=All About You
TTITLE8=Tingel-Tangelmanden
TTITLE9=Gong-Gong. The Elephant Song
TTITLE10=Tell Me
TTITLE11=Snehvidekys
TTITLE12=Ida Verlaine
EXTD=The Elephant Song.
EXTT0=
EXTT1=
EXTT2=
EXTT3=
EXTT4=
EXTT5=
EXTT6=
EXTT7=
EXTT8=
EXTT9=
EXTT10=
EXTT11=
EXTT12=
PLAYORDER=
